<svg width="32" height="32" viewBox="0 0 32 32" xmlns="http://www.w3.org/2000/svg">
  <!-- 背景圆形 -->
  <circle cx="16" cy="16" r="15" fill="#1F2937" stroke="#374151" stroke-width="1"/>
  
  <!-- 相机镜头外圈 -->
  <circle cx="16" cy="16" r="12" fill="#3B82F6" opacity="0.9"/>
  
  <!-- 镜头内圈 -->
  <circle cx="16" cy="16" r="8" fill="#1F2937"/>
  
  <!-- 光圈叶片 -->
  <g transform="rotate(0 16 16)">
    <rect x="15" y="8" width="2" height="8" fill="#F59E0B" rx="1"/>
  </g>
  <g transform="rotate(45 16 16)">
    <rect x="15" y="8" width="2" height="8" fill="#F59E0B" rx="1"/>
  </g>
  <g transform="rotate(90 16 16)">
    <rect x="15" y="8" width="2" height="8" fill="#F59E0B" rx="1"/>
  </g>
  <g transform="rotate(135 16 16)">
    <rect x="15" y="8" width="2" height="8" fill="#F59E0B" rx="1"/>
  </g>
  <g transform="rotate(180 16 16)">
    <rect x="15" y="8" width="2" height="8" fill="#F59E0B" rx="1"/>
  </g>
  <g transform="rotate(225 16 16)">
    <rect x="15" y="8" width="2" height="8" fill="#F59E0B" rx="1"/>
  </g>
  <g transform="rotate(270 16 16)">
    <rect x="15" y="8" width="2" height="8" fill="#F59E0B" rx="1"/>
  </g>
  <g transform="rotate(315 16 16)">
    <rect x="15" y="8" width="2" height="8" fill="#F59E0B" rx="1"/>
  </g>
  
  <!-- 中心点 -->
  <circle cx="16" cy="16" r="2" fill="#F3F4F6"/>
  
  <!-- EXIF 数据点 -->
  <circle cx="8" cy="8" r="1.5" fill="#10B981"/>
  <circle cx="24" cy="8" r="1.5" fill="#10B981"/>
  <circle cx="8" cy="24" r="1.5" fill="#10B981"/>
  <circle cx="24" cy="24" r="1.5" fill="#10B981"/>
</svg> 